<?xml version="1.0" standalone="no"?>
<!DOCTYPE svg PUBLIC "-//W3C//DTD SVG 20010904//EN"
 "http://www.w3.org/TR/2001/REC-SVG-20010904/DTD/svg10.dtd">
<svg version="1.0" xmlns="http://www.w3.org/2000/svg"
 width="512.000000pt" height="512.000000pt" viewBox="0 0 512.000000 512.000000"
 preserveAspectRatio="xMidYMid meet">
<metadata>
Created by potrace 1.14, written by Peter Selinger 2001-2017
</metadata>
<g transform="translate(0.000000,512.000000) scale(0.100000,-0.100000)"
fill="#000000" stroke="none">
<path d="M3025 5080 c-82 -22 -159 -42 -170 -44 -11 -2 -27 -7 -35 -10 -8 -3
-26 -8 -40 -10 -14 -3 -95 -23 -180 -45 -277 -71 -915 -233 -930 -236 -8 -2
-150 -38 -315 -80 -165 -43 -337 -86 -381 -97 -45 -10 -89 -25 -99 -31 -15
-12 -16 -173 -16 -2255 0 -1733 2 -2247 12 -2258 10 -12 220 -14 1578 -12
l1566 3 55 26 c93 44 167 134 185 224 3 17 6 926 6 2021 l0 1991 -22 58 c-28
75 -94 146 -168 182 -56 27 -57 27 -309 29 -140 2 -256 5 -259 8 -4 3 -7 88
-7 188 -1 182 -2 183 -31 236 -50 91 -127 141 -228 147 -49 3 -94 -4 -212 -35z"/>
</g>
</svg>
